<?xml version="1.0" encoding="UTF-8"?>
<svg xmlns="http://www.w3.org/2000/svg" xmlns:xlink="http://www.w3.org/1999/xlink" width="510" height="510" viewBox="0 0 510 510">
<rect x="-51" y="-51" width="612" height="612" fill="rgb(100%, 100%, 100%)" fill-opacity="1"/>
<path fill-rule="nonzero" fill="rgb(0%, 0%, 0%)" fill-opacity="1" d="M 255 5 C 393.070312 5 505 116.929688 505 255 C 505 393.070312 393.070312 505 255 505 C 185.964844 505 130 449.035156 130 380 C 130 310.964844 185.964844 255 255 255 C 324.035156 255 380 199.035156 380 130 C 380 60.964844 324.035156 5 255 5 "/>
<path fill="none" stroke-width="2" stroke-linecap="butt" stroke-linejoin="miter" stroke="rgb(0%, 0%, 0%)" stroke-opacity="1" stroke-miterlimit="10" d="M 505 255 C 505 393.070312 393.070312 505 255 505 C 116.929688 505 5 393.070312 5 255 C 5 116.929688 116.929688 5 255 5 C 393.070312 5 505 116.929688 505 255 Z M 505 255 "/>
<path fill-rule="nonzero" fill="rgb(0%, 0%, 0%)" fill-opacity="1" d="M 286.25 130 C 286.25 147.257812 272.257812 161.25 255 161.25 C 237.742188 161.25 223.75 147.257812 223.75 130 C 223.75 112.742188 237.742188 98.75 255 98.75 C 272.257812 98.75 286.25 112.742188 286.25 130 Z M 286.25 130 "/>
<path fill-rule="nonzero" fill="rgb(100%, 100%, 100%)" fill-opacity="1" d="M 286.25 380 C 286.25 397.257812 272.257812 411.25 255 411.25 C 237.742188 411.25 223.75 397.257812 223.75 380 C 223.75 362.742188 237.742188 348.75 255 348.75 C 272.257812 348.75 286.25 362.742188 286.25 380 Z M 286.25 380 "/>
</svg>
